<svg width="24" height="24" viewBox="0 0 24 24" fill="none" xmlns="http://www.w3.org/2000/svg">
<g clip-path="url(#clip0_23_233)">
<g filter="url(#filter0_d_23_233)">
<path d="M21.9684 6.5175C21.8801 6.17189 21.7109 5.85224 21.4747 5.58491C21.2385 5.31758 20.9421 5.11024 20.61 4.98C17.3962 3.73875 12.2812 3.75 12 3.75C11.7188 3.75 6.60375 3.73875 3.39 4.98C3.0579 5.11024 2.76153 5.31758 2.52534 5.58491C2.28915 5.85224 2.1199 6.17189 2.03156 6.5175C1.78875 7.45313 1.5 9.16313 1.5 12C1.5 14.8369 1.78875 16.5469 2.03156 17.4825C2.11977 17.8283 2.28895 18.1481 2.52515 18.4156C2.76136 18.6831 3.0578 18.8906 3.39 19.0209C6.46875 20.2088 11.2875 20.25 11.9381 20.25H12.0619C12.7125 20.25 17.5341 20.2088 20.61 19.0209C20.9422 18.8906 21.2386 18.6831 21.4748 18.4156C21.711 18.1481 21.8802 17.8283 21.9684 17.4825C22.2113 16.545 22.5 14.8369 22.5 12C22.5 9.16313 22.2113 7.45313 21.9684 6.5175ZM15.2081 12.3122L10.7081 15.3122C10.6516 15.3499 10.586 15.3715 10.5181 15.3748C10.4503 15.3781 10.3829 15.3629 10.323 15.3309C10.2631 15.2988 10.2131 15.2511 10.1782 15.1928C10.1434 15.1346 10.125 15.0679 10.125 15V9C10.125 8.9321 10.1434 8.86545 10.1782 8.80718C10.2131 8.74892 10.2631 8.70121 10.323 8.66916C10.3829 8.63711 10.4503 8.62191 10.5181 8.6252C10.586 8.62849 10.6516 8.65013 10.7081 8.68782L15.2081 11.6878C15.2596 11.722 15.3017 11.7685 15.3309 11.8229C15.3601 11.8774 15.3754 11.9382 15.3754 12C15.3754 12.0618 15.3601 12.1226 15.3309 12.1771C15.3017 12.2315 15.2596 12.278 15.2081 12.3122Z" fill="white" fill-opacity="0.5" shape-rendering="crispEdges"/>
<path d="M9.625 14.9997C9.6249 15.1581 9.66782 15.3136 9.74919 15.4496L10.1782 15.1928L9.74919 15.4496C9.83056 15.5856 9.94732 15.6969 10.087 15.7717C10.2267 15.8464 10.3841 15.8819 10.5423 15.8742C10.7006 15.8666 10.8538 15.8161 10.9856 15.7281L15.4851 12.7284C15.4852 12.7284 15.4854 12.7283 15.4855 12.7282C15.6053 12.6484 15.7037 12.5401 15.7717 12.4132C15.8397 12.2861 15.8754 12.1442 15.8754 12C15.8754 11.8558 15.8397 11.7139 15.7717 11.5868L9.625 14.9997ZM9.625 14.9997V9.00033V9V14.9997ZM21.484 6.64132L21.4845 6.6431C21.7145 7.52945 22 9.19603 22 12C22 14.8039 21.7145 16.4687 21.4844 17.3571L21.484 17.3589C21.4153 17.6279 21.2838 17.8766 21.1 18.0847C20.9166 18.2924 20.6865 18.4536 20.4286 18.555C18.9562 19.1233 17.0376 19.4256 15.3792 19.5831C13.7293 19.7399 12.3784 19.75 12.0619 19.75H11.9381C11.6217 19.75 10.2714 19.7399 8.62191 19.5831C6.9639 19.4256 5.04524 19.1234 3.57131 18.555C3.31345 18.4536 3.08336 18.2924 2.89995 18.0847C2.71624 17.8766 2.58465 17.6279 2.51605 17.3589L2.51553 17.3569C2.28551 16.4706 2 14.804 2 12C2 9.19603 2.28551 7.52945 2.51553 6.6431L2.51553 6.6431L2.51599 6.64132C2.5847 6.37251 2.71633 6.12389 2.90004 5.91597C3.08347 5.70835 3.31357 5.54726 3.57141 5.44594C5.11067 4.85169 7.13509 4.54887 8.83891 4.39758C10.5058 4.24956 11.8222 4.24995 11.9926 4.25L12 4.25L12.0074 4.25C12.1778 4.24995 13.4942 4.24956 15.1611 4.39758C16.8649 4.54887 18.8893 4.85168 20.4285 5.44592C20.6864 5.54724 20.9165 5.70834 21.1 5.91597C21.2837 6.12389 21.4153 6.37251 21.484 6.64132ZM9.74919 8.55041L9.74919 8.55042L15.4855 11.2718C15.4854 11.2718 15.4854 11.2717 15.4853 11.2717C15.4852 11.2716 15.4852 11.2716 15.4851 11.2716L10.9856 8.27189C10.9856 8.27186 10.9855 8.27182 10.9855 8.27179C10.8537 8.18391 10.7005 8.13345 10.5423 8.12579L10.5181 8.6252L10.5423 8.12579C10.3841 8.11812 10.2267 8.15357 10.087 8.22836C9.94732 8.30314 9.83056 8.41445 9.74919 8.55041Z" stroke="black" shape-rendering="crispEdges"/>
</g>
</g>
<defs>
<filter id="filter0_d_23_233" x="-2.5" y="3.75" width="29" height="24.5" filterUnits="userSpaceOnUse" color-interpolation-filters="sRGB">
<feFlood flood-opacity="0" result="BackgroundImageFix"/>
<feColorMatrix in="SourceAlpha" type="matrix" values="0 0 0 0 0 0 0 0 0 0 0 0 0 0 0 0 0 0 127 0" result="hardAlpha"/>
<feOffset dy="4"/>
<feGaussianBlur stdDeviation="2"/>
<feComposite in2="hardAlpha" operator="out"/>
<feColorMatrix type="matrix" values="0 0 0 0 0 0 0 0 0 0 0 0 0 0 0 0 0 0 0.25 0"/>
<feBlend mode="normal" in2="BackgroundImageFix" result="effect1_dropShadow_23_233"/>
<feBlend mode="normal" in="SourceGraphic" in2="effect1_dropShadow_23_233" result="shape"/>
</filter>
<clipPath id="clip0_23_233">
<rect width="24" height="24" fill="white"/>
</clipPath>
</defs>
</svg>
